<mxfile host="app.diagrams.net" modified="2023-12-25T02:42:58.595Z" agent="Mozilla/5.0 (Windows NT 10.0; Win64; x64) AppleWebKit/537.36 (KHTML, like Gecko) Chrome/119.0.0.0 Safari/537.36" etag="t86ECnq4wrhhTutR7URZ" version="22.1.11" type="github">
  <diagram name="第 1 页" id="u_BORodlHHCD8F14pWIf">
    <mxGraphModel dx="1050" dy="557" grid="1" gridSize="10" guides="1" tooltips="1" connect="1" arrows="1" fold="1" page="1" pageScale="1" pageWidth="827" pageHeight="1169" math="0" shadow="0">
      <root>
        <mxCell id="0" />
        <mxCell id="1" parent="0" />
        <mxCell id="gdRTdXCUGT9eiDDwLGJK-1" value="" style="group" vertex="1" connectable="0" parent="1">
          <mxGeometry x="430" y="87" width="230" height="273" as="geometry" />
        </mxCell>
        <mxCell id="gdRTdXCUGT9eiDDwLGJK-2" value="" style="rounded=0;whiteSpace=wrap;html=1;" vertex="1" parent="gdRTdXCUGT9eiDDwLGJK-1">
          <mxGeometry width="230" height="273" as="geometry" />
        </mxCell>
        <mxCell id="gdRTdXCUGT9eiDDwLGJK-3" value="&lt;font style=&quot;font-size: 24px;&quot;&gt;物质基础&lt;/font&gt;" style="text;html=1;strokeColor=none;fillColor=none;align=center;verticalAlign=middle;whiteSpace=wrap;rounded=0;" vertex="1" parent="gdRTdXCUGT9eiDDwLGJK-1">
          <mxGeometry x="70.76923076923077" y="5.787985865724382" width="104.3846153846154" height="22.18727915194346" as="geometry" />
        </mxCell>
        <mxCell id="gdRTdXCUGT9eiDDwLGJK-4" style="rounded=0;orthogonalLoop=1;jettySize=auto;html=1;exitX=1;exitY=0.5;exitDx=0;exitDy=0;" edge="1" parent="1" source="gdRTdXCUGT9eiDDwLGJK-5" target="gdRTdXCUGT9eiDDwLGJK-10">
          <mxGeometry relative="1" as="geometry" />
        </mxCell>
        <mxCell id="gdRTdXCUGT9eiDDwLGJK-5" value="&lt;font style=&quot;font-size: 24px;&quot;&gt;营气&lt;/font&gt;" style="ellipse;whiteSpace=wrap;html=1;" vertex="1" parent="1">
          <mxGeometry x="512" y="132" width="70" height="50" as="geometry" />
        </mxCell>
        <mxCell id="gdRTdXCUGT9eiDDwLGJK-6" style="rounded=0;orthogonalLoop=1;jettySize=auto;html=1;exitX=1;exitY=0.5;exitDx=0;exitDy=0;" edge="1" parent="1" source="gdRTdXCUGT9eiDDwLGJK-7" target="gdRTdXCUGT9eiDDwLGJK-10">
          <mxGeometry relative="1" as="geometry" />
        </mxCell>
        <mxCell id="gdRTdXCUGT9eiDDwLGJK-7" value="&lt;font style=&quot;font-size: 24px;&quot;&gt;肾精&lt;/font&gt;" style="ellipse;whiteSpace=wrap;html=1;" vertex="1" parent="1">
          <mxGeometry x="506" y="300" width="80" height="50" as="geometry" />
        </mxCell>
        <mxCell id="gdRTdXCUGT9eiDDwLGJK-8" style="edgeStyle=orthogonalEdgeStyle;rounded=0;orthogonalLoop=1;jettySize=auto;html=1;exitX=1;exitY=0.5;exitDx=0;exitDy=0;" edge="1" parent="1" source="gdRTdXCUGT9eiDDwLGJK-9" target="gdRTdXCUGT9eiDDwLGJK-10">
          <mxGeometry relative="1" as="geometry" />
        </mxCell>
        <mxCell id="gdRTdXCUGT9eiDDwLGJK-9" value="&lt;font style=&quot;font-size: 24px;&quot;&gt;津液&lt;/font&gt;" style="ellipse;whiteSpace=wrap;html=1;" vertex="1" parent="1">
          <mxGeometry x="506" y="215" width="80" height="50" as="geometry" />
        </mxCell>
        <mxCell id="gdRTdXCUGT9eiDDwLGJK-10" value="&lt;font style=&quot;font-size: 24px;&quot;&gt;血&lt;/font&gt;" style="ellipse;whiteSpace=wrap;html=1;aspect=fixed;" vertex="1" parent="1">
          <mxGeometry x="716" y="200" width="80" height="80" as="geometry" />
        </mxCell>
        <mxCell id="gdRTdXCUGT9eiDDwLGJK-11" style="edgeStyle=orthogonalEdgeStyle;rounded=0;orthogonalLoop=1;jettySize=auto;html=1;exitX=1;exitY=0.5;exitDx=0;exitDy=0;" edge="1" parent="1" source="gdRTdXCUGT9eiDDwLGJK-12" target="gdRTdXCUGT9eiDDwLGJK-14">
          <mxGeometry relative="1" as="geometry" />
        </mxCell>
        <mxCell id="gdRTdXCUGT9eiDDwLGJK-12" value="&lt;font style=&quot;font-size: 24px;&quot;&gt;饮食&lt;/font&gt;" style="ellipse;whiteSpace=wrap;html=1;" vertex="1" parent="1">
          <mxGeometry x="60" y="167" width="70" height="50" as="geometry" />
        </mxCell>
        <mxCell id="gdRTdXCUGT9eiDDwLGJK-13" style="rounded=0;orthogonalLoop=1;jettySize=auto;html=1;exitX=1;exitY=0.5;exitDx=0;exitDy=0;entryX=0;entryY=0.5;entryDx=0;entryDy=0;" edge="1" parent="1" source="gdRTdXCUGT9eiDDwLGJK-14" target="gdRTdXCUGT9eiDDwLGJK-5">
          <mxGeometry relative="1" as="geometry" />
        </mxCell>
        <mxCell id="gdRTdXCUGT9eiDDwLGJK-14" value="&lt;font style=&quot;font-size: 24px;&quot;&gt;水谷精微&lt;/font&gt;" style="ellipse;whiteSpace=wrap;html=1;" vertex="1" parent="1">
          <mxGeometry x="230" y="168" width="110" height="48" as="geometry" />
        </mxCell>
        <mxCell id="gdRTdXCUGT9eiDDwLGJK-15" style="rounded=0;orthogonalLoop=1;jettySize=auto;html=1;entryX=0;entryY=0.664;entryDx=0;entryDy=0;entryPerimeter=0;exitX=1;exitY=0.5;exitDx=0;exitDy=0;" edge="1" parent="1" source="gdRTdXCUGT9eiDDwLGJK-14" target="gdRTdXCUGT9eiDDwLGJK-9">
          <mxGeometry relative="1" as="geometry">
            <mxPoint x="340" y="180" as="sourcePoint" />
          </mxGeometry>
        </mxCell>
        <mxCell id="gdRTdXCUGT9eiDDwLGJK-16" style="rounded=0;orthogonalLoop=1;jettySize=auto;html=1;exitX=1;exitY=0.5;exitDx=0;exitDy=0;entryX=0;entryY=1;entryDx=0;entryDy=0;" edge="1" parent="1" source="gdRTdXCUGT9eiDDwLGJK-18" target="gdRTdXCUGT9eiDDwLGJK-10">
          <mxGeometry relative="1" as="geometry" />
        </mxCell>
        <mxCell id="gdRTdXCUGT9eiDDwLGJK-17" value="&lt;font style=&quot;font-size: 17px;&quot;&gt;动力&lt;/font&gt;" style="edgeLabel;html=1;align=center;verticalAlign=middle;resizable=0;points=[];fontColor=#FF6666;" vertex="1" connectable="0" parent="gdRTdXCUGT9eiDDwLGJK-16">
          <mxGeometry x="0.1047" y="-2" relative="1" as="geometry">
            <mxPoint as="offset" />
          </mxGeometry>
        </mxCell>
        <mxCell id="gdRTdXCUGT9eiDDwLGJK-18" value="&lt;font style=&quot;font-size: 24px;&quot;&gt;脏腑之气&lt;/font&gt;" style="ellipse;whiteSpace=wrap;html=1;" vertex="1" parent="1">
          <mxGeometry x="520" y="400" width="105" height="50" as="geometry" />
        </mxCell>
        <mxCell id="gdRTdXCUGT9eiDDwLGJK-19" value="&lt;font style=&quot;font-size: 18px;&quot;&gt;气能生血&lt;/font&gt;" style="text;html=1;align=center;verticalAlign=middle;whiteSpace=wrap;rounded=0;fontColor=#FF6666;" vertex="1" parent="1">
          <mxGeometry x="60" y="80" width="90" height="30" as="geometry" />
        </mxCell>
      </root>
    </mxGraphModel>
  </diagram>
</mxfile>
